<?xml version="1.0" standalone="no"?><!DOCTYPE svg PUBLIC "-//W3C//DTD SVG 1.1//EN" "http://www.w3.org/Graphics/SVG/1.1/DTD/svg11.dtd"><svg t="1578752659003" class="icon" viewBox="0 0 1024 1024" version="1.1" xmlns="http://www.w3.org/2000/svg" p-id="1579" xmlns:xlink="http://www.w3.org/1999/xlink" width="200" height="200"><defs><style type="text/css"></style></defs><path d="M912.341333 259.242667a42.496 42.496 0 0 0-46.506666 9.258666L725.333333 409.002667V213.333333a42.666667 42.666667 0 0 0-42.666666-42.666666H128a42.666667 42.666667 0 0 0-42.666667 42.666666v597.333334a42.666667 42.666667 0 0 0 42.666667 42.666666h554.666667a42.666667 42.666667 0 0 0 42.666666-42.666666v-195.669334l140.501334 140.501334A42.624 42.624 0 1 0 938.666667 725.333333V298.666667a42.624 42.624 0 0 0-26.325334-39.424zM640 768H170.666667V256h469.333333v512z m213.333333-145.664L742.997333 512 853.333333 401.664v220.672z" fill="#13227a" p-id="1580"></path></svg>